<svg version="1.1" id="Layer_1" xmlns="http://www.w3.org/2000/svg" xmlns:xlink="http://www.w3.org/1999/xlink" x="0px" y="0px"
	 width="320px" height="100px" viewBox="0 0 320 100" enable-background="new 0 0 320 100" xml:space="preserve">
	<g>
		<path fill="#242E4C" d="M37.485,30.499v43.415c0,2.015-0.264,3.942-0.792,5.744c-0.528,1.767-1.375,3.369-2.541,4.695
			c-1.205,1.366-2.76,2.406-4.664,3.204c-1.944,0.797-4.34,1.155-7.229,1.155c-1.037,0-2.019-0.045-2.944-0.174
			c-0.887-0.13-1.838-0.304-2.815-0.563l0.418-6.826c0.041-0.578,0.259-1.007,0.578-1.285c0.359-0.28,0.997-0.42,1.993-0.42
			c1.036,0,1.824-0.059,2.481-0.258c0.657-0.159,1.142-0.449,1.53-0.866c0.389-0.42,0.619-0.981,0.807-1.689
			c0.149-0.709,0.205-1.64,0.205-2.718V30.499H37.485z"/>
		<path fill="#E83E8C" d="M67.061,29.822c3.269,0,6.287,0.527,8.979,1.544c2.69,1.017,5.026,2.511,6.93,4.444
			c1.943,1.894,3.458,4.24,4.544,7c1.046,2.721,1.589,5.805,1.589,9.252c0,3.429-0.543,6.533-1.589,9.313
			c-1.086,2.779-2.601,5.141-4.544,7.083c-1.904,1.905-4.24,3.409-6.93,4.476c-2.691,1.027-5.71,1.56-8.979,1.56
			c-3.329,0-6.323-0.532-9.063-1.56c-2.7-1.066-5.052-2.57-7.015-4.476c-1.963-1.942-3.488-4.304-4.535-7.083
			c-1.086-2.78-1.628-5.885-1.628-9.313c0-3.447,0.542-6.531,1.628-9.252c1.047-2.76,2.572-5.106,4.535-7
			c1.963-1.934,4.315-3.428,7.015-4.444C60.738,30.35,63.732,29.822,67.061,29.822z"/>
		<path fill="#242E4C" d="M96.216,73.816V11.287h12.935v23.815c1.633-1.614,3.462-2.885,5.486-3.851
			c2.062-0.967,4.459-1.43,7.229-1.43c2.252,0,4.345,0.507,6.277,1.444c1.894,0.977,3.558,2.437,4.953,4.3s2.496,4.19,3.264,6.9
			c0.808,2.751,1.21,5.85,1.21,9.337c0,3.249-0.444,6.277-1.37,9.009c-0.888,2.77-2.153,5.161-3.796,7.175
			c-1.645,2.052-3.558,3.627-5.859,4.764c-2.263,1.175-4.778,1.743-7.509,1.743c-1.314,0-2.456-0.131-3.462-0.39
			s-1.953-0.592-2.8-1.079c-0.848-0.449-1.644-1.002-2.352-1.621c-0.708-0.657-1.4-1.354-2.039-2.093l-0.488,2.153
			c-0.18,0.915-0.553,1.515-1.042,1.833c-0.528,0.358-1.21,0.519-2.047,0.519H96.216z M117.361,39.538
			c-0.957,0-1.808,0.104-2.595,0.273c-0.748,0.209-1.456,0.473-2.123,0.792s-1.26,0.743-1.818,1.271
			c-0.558,0.528-1.116,1.111-1.674,1.788v18.376c0.976,1.096,2.052,1.839,3.188,2.267c1.136,0.429,2.351,0.662,3.568,0.662
			c1.215,0,2.321-0.248,3.318-0.707c0.997-0.498,1.858-1.24,2.625-2.307c0.728-1.026,1.301-2.396,1.72-4.07
			c0.418-1.674,0.647-3.688,0.647-6.079c0-2.271-0.199-4.205-0.519-5.76c-0.319-1.555-0.812-2.815-1.4-3.781
			c-0.588-0.967-1.3-1.659-2.137-2.077C119.324,39.767,118.377,39.538,117.361,39.538z"/>
		<path fill="#242E4C" d="M144.684,73.816V11.287h12.935v23.815c1.633-1.614,3.462-2.885,5.486-3.851
			c2.062-0.967,4.459-1.43,7.229-1.43c2.252,0,4.345,0.507,6.238,1.444c1.933,0.977,3.597,2.437,4.992,4.3s2.496,4.19,3.264,6.9
			c0.808,2.751,1.21,5.85,1.21,9.337c0,3.249-0.482,6.277-1.37,9.009c-0.887,2.77-2.153,5.161-3.796,7.175
			c-1.645,2.052-3.597,3.627-5.859,4.764c-2.263,1.175-4.778,1.743-7.548,1.743c-1.275,0-2.417-0.131-3.423-0.39
			s-1.953-0.592-2.8-1.079c-0.848-0.449-1.644-1.002-2.352-1.621c-0.708-0.657-1.4-1.354-2.077-2.093l-0.449,2.153
			c-0.18,0.915-0.553,1.515-1.081,1.833c-0.489,0.358-1.171,0.519-2.008,0.519H144.684z M165.79,39.538
			c-0.917,0-1.769,0.104-2.556,0.273c-0.748,0.209-1.456,0.473-2.123,0.792s-1.26,0.743-1.818,1.271
			c-0.558,0.528-1.116,1.111-1.674,1.788v18.376c0.976,1.096,2.052,1.839,3.188,2.267c1.136,0.429,2.312,0.662,3.567,0.662
			c1.215,0,2.322-0.248,3.318-0.707c0.997-0.498,1.858-1.24,2.587-2.307c0.765-1.026,1.339-2.396,1.757-4.07
			c0.418-1.674,0.608-3.688,0.608-6.079c0-2.271-0.16-4.205-0.479-5.76c-0.358-1.555-0.813-2.815-1.4-3.781
			c-0.627-0.967-1.34-1.659-2.177-2.077C167.753,39.767,166.845,39.538,165.79,39.538z"/>
		<path fill="#242E4C" d="M206.505,30.499v43.317h-12.974V30.499H206.505z"/>
		<path fill="#242E4C" d="M216.928,73.816V30.499h8.051c0.778,0,1.459,0.17,2.008,0.548c0.547,0.34,0.94,0.888,1.14,1.605
			l0.778,2.511c0.836-0.758,1.693-1.515,2.571-2.153c0.877-0.677,1.838-1.24,2.845-1.688c1.046-0.488,2.151-0.827,3.318-1.097
			c1.167-0.268,2.485-0.402,3.881-0.402c2.332,0,4.429,0.413,6.253,1.24c1.825,0.827,3.363,1.963,4.618,3.408
			c1.256,1.484,2.212,3.208,2.87,5.25c0.617,2.004,0.966,4.211,0.966,6.543v27.553h-12.974V46.264c0-2.112-0.469-3.731-1.445-4.938
			c-0.978-1.166-2.44-1.788-4.314-1.788c-1.416,0-2.771,0.338-4.026,0.936c-1.255,0.599-2.432,1.426-3.568,2.481v30.861H216.928z"/>
		<path fill="#242E4C" d="M280.682,29.723c1.833,0,3.591,0.209,5.196,0.548c1.644,0.378,3.164,0.906,4.559,1.545H303.5v4.732
			c0,0.718-0.184,1.285-0.593,1.704s-1.101,0.767-2.078,0.967l-3.188,0.707c0.398,1.256,0.578,2.541,0.578,3.896
			c0,2.152-0.445,4.105-1.331,5.859c-0.927,1.714-2.173,3.164-3.736,4.39c-1.565,1.225-3.414,2.133-5.586,2.8
			c-2.133,0.668-4.414,0.981-6.885,0.981c-1.338,0-2.651-0.1-3.828-0.259c-0.957,0.563-1.416,1.224-1.416,1.946
			s0.354,1.259,1.142,1.57c0.747,0.351,1.788,0.552,3.004,0.682c1.256,0.131,2.72,0.215,4.315,0.215c1.633,0,3.249,0.057,4.923,0.206
			c1.673,0.15,3.328,0.415,4.962,0.794c1.594,0.34,3.021,0.958,4.275,1.737c1.255,0.819,2.256,1.913,3.044,3.241
			c0.747,1.368,1.141,3.082,1.141,5.179c0,1.957-0.459,3.884-1.416,5.743c-0.956,1.896-2.351,3.563-4.185,5.002
			c-1.833,1.438-4.085,2.631-6.756,3.501c-2.67,0.868-5.741,1.303-9.207,1.303c-3.39,0-6.323-0.31-8.804-0.927
			c-2.443-0.658-4.505-1.501-6.11-2.566c-1.644-1.028-2.864-2.249-3.622-3.588c-0.797-1.375-1.156-2.792-1.156-4.286
			c0-1.937,0.578-3.537,1.734-4.883c1.156-1.306,2.78-2.328,4.792-3.106c-0.976-0.617-1.734-1.442-2.312-2.438
			c-0.617-1.035-0.906-2.299-0.906-3.793c0-0.656,0.12-1.338,0.358-2.044c0.199-0.707,0.567-1.398,1.027-2.076
			c0.498-0.638,1.085-1.294,1.803-1.892c0.717-0.637,1.576-1.185,2.609-1.643c-2.29-1.176-4.04-2.79-5.325-4.763
			c-1.324-1.973-1.947-4.255-1.947-6.886c0-2.192,0.448-4.15,1.345-5.874c0.937-1.725,2.197-3.219,3.781-4.444
			c1.624-1.187,3.493-2.132,5.685-2.8C275.789,30.076,278.15,29.723,280.682,29.723z M290.307,75.323c0-0.71-0.234-1.314-0.662-1.74
			c-0.429-0.425-1.007-0.748-1.735-1.011c-0.766-0.263-1.624-0.437-2.61-0.557c-0.986-0.121-2.028-0.163-3.203-0.163
			c-1.137,0-2.302,0-3.539,0c-1.234,0-2.422-0.124-3.637-0.373c-0.817,0.56-1.45,1.202-1.978,1.891
			c-0.528,0.689-0.792,1.443-0.792,2.302c0,0.639,0.135,1.197,0.403,1.678c0.27,0.519,0.723,0.948,1.401,1.29
			c0.677,0.377,1.56,0.661,2.686,0.891c1.163,0.189,2.585,0.306,4.299,0.306c1.854,0,3.388-0.122,4.604-0.365
			c1.177-0.203,2.138-0.507,2.846-0.911c0.708-0.403,1.22-0.904,1.499-1.422C290.167,76.581,290.307,75.95,290.307,75.323z
			M280.682,49.871c2.171,0,3.721-0.543,4.647-1.59c0.968-1.086,1.469-2.476,1.469-4.17c0-1.773-0.501-3.119-1.469-4.155
			c-0.927-0.996-2.477-1.475-4.647-1.475c-2.134,0-3.684,0.479-4.649,1.475c-0.966,1.036-1.431,2.382-1.431,4.155
			c0,0.837,0.125,1.585,0.335,2.282c0.248,0.697,0.631,1.33,1.111,1.818c0.517,0.528,1.13,0.937,1.918,1.226
			C278.713,49.727,279.645,49.871,280.682,49.871z"/>
	</g>
</svg>
